<?xml version="1.0" encoding="UTF-8"?><svg id="Layer_1" xmlns="http://www.w3.org/2000/svg" viewBox="0 0 173.64 24.67"><defs><style>.cls-1{fill:#231f20;}</style></defs><path class="cls-1" d="m0,0h21.17v3.5h3.5v7.17h-3.5v3.5H3.67v10.5H0V0Zm3.67,10.5h17.33V3.67H3.67v6.83Z"/><path class="cls-1" d="m26.35,10.5h3.5v-3.5h14.17v3.5h3.5v10.67h-3.5v3.5h-14.17v-3.5h-3.5v-10.67Zm3.67,10.5h13.83v-10.33h-13.83v10.33Z"/><path class="cls-1" d="m49.92,0h3.67v14h3.33v-3.5h7v-3.5h7.17v3.67h-7v3.5h-7v3.33h7v3.5h7v3.67h-7.17v-3.5h-7v-3.5h-3.33v7h-3.67V0Z"/><path class="cls-1" d="m72.62,10.5h3.5v-3.5h14.17v3.5h3.5v7.17h-17.5v3.33h17.5v3.67h-17.67v-3.5h-3.5v-10.67Zm3.67,3.5h13.83v-3.33h-13.83v3.33Z"/><path class="cls-1" d="m97.53,0h17.67v3.5h3.5v3.5h3.5v10.67h-3.5v3.5h-3.5v3.5h-17.67V0Zm17.5,3.67h-13.83v17.33h13.83v-3.5h3.5V7.17h-3.5v-3.5Z"/><path class="cls-1" d="m125,10.5h3.5v-3.5h14.17v3.5h3.5v7.17h-17.5v3.33h17.5v3.67h-17.67v-3.5h-3.5v-10.67Zm3.67,3.5h13.83v-3.33h-13.83v3.33Z"/><path class="cls-1" d="m148.97,7h7.17v3.5h3.5v3.5h3.33v-3.5h3.5v-3.5h3.67v3.67h-3.5v3.5h-3.5v3.33h3.5v3.5h7v3.67h-7.17v-3.5h-3.5v-3.5h-3.33v3.5h-3.5v3.5h-3.67v-3.67h3.5v-3.5h3.5v-3.33h-3.5v-3.5h-7v-3.67Z"/></svg>