<?xml version="1.0" encoding="UTF-8"?><svg id="Layer_1" xmlns="http://www.w3.org/2000/svg" viewBox="0 0 197.53 8.52"><defs><style>.cls-1{fill:#231f20;}</style></defs><path class="cls-1" d="m4.38.01h.19c.13.02.19.08.19.19v3.31c.58,0,1.17.32,1.75.97.93,0,1.48-.78,1.65-2.33,0-.32.06-.48.19-.48h.2s.14.1.29.29c-.25,2.14-.93,3.21-2.05,3.21.13.33.19.59.19.78-.3,1.69-1.08,2.53-2.33,2.53h-.48c-1.17,0-1.91-.78-2.24-2.33v-.29l.1-.68C.68,4.84,0,3.74,0,1.86l.29-.19h.09c.17,0,.36.65.58,1.94.43.58.82.87,1.17.87h.19c.68-.65,1.27-.97,1.75-.97V.31c0-.09.1-.19.29-.29Zm-1.75,5.74v.48c0,.75.58,1.31,1.75,1.66,1.08,0,1.73-.68,1.94-2.05,0-.86-.62-1.44-1.85-1.75-1.23.28-1.84.83-1.84,1.66Zm1.65-.29h.1c.39.04.58.14.58.29v.39c0,.1-.13.23-.39.39-.46,0-.68-.19-.68-.58.13-.29.26-.46.39-.49Z"/><path class="cls-1" d="m11.98,2.43c1.18.2,1.77.77,1.77,1.71-.04.37-.17.76-.39,1.18.66.55.98.94.98,1.18-.15.09-.26.13-.33.13,0-.05-.35-.4-1.05-1.05-.3.17-.57.26-.79.26h-.13c-.47,0-.88-.15-1.25-.46v2.96c0,.09-.04.13-.13.13h-.14c-.13-.04-.19-.18-.19-.39v-4.07c0-.8.55-1.32,1.64-1.57Zm-1.18,1.64v.26c.2.7.55,1.05,1.05,1.05h.27c.64,0,1.04-.41,1.18-1.24,0-.67-.44-1.08-1.31-1.25-.79.18-1.18.58-1.18,1.18Zm1.11-.27h.27c.13.04.19.18.19.39v.06c0,.07-.09.16-.26.27-.31,0-.46-.15-.46-.46,0-.07.09-.16.26-.27Z"/><path class="cls-1" d="m16.92,2.43h.11c.05,0,.11.05.17.17v1.49c.63,0,1.04.46,1.21,1.37-.17.92-.58,1.37-1.21,1.37,0,.04-.02.06-.06.06l.06.11v1.16c0,.19-.05.3-.17.33h-.11c-.07,0-.11-.04-.11-.11v-1.48c-.61,0-1.03-.44-1.26-1.32v-.05c.13-.95.52-1.43,1.16-1.43,0-.04.04-.06.11-.06v-1.48c.01-.07.05-.11.11-.11Zm-.99,2.96v.11c.13.66.46.99.99.99h.05c.7-.11,1.04-.46,1.04-1.05-.12-.7-.47-1.04-1.04-1.04-.7.12-1.04.45-1.04.99Zm1.04-.27c.17.07.26.14.28.22v.22c-.02.07-.11.15-.28.22-.22,0-.33-.13-.33-.38.07-.13.18-.22.33-.27Z"/><path class="cls-1" d="m19.85,2.43h4.46c.1.02.15.06.15.14v.22c0,.09-.05.14-.15.14h-2.02v1.87c1.06.28,1.59.8,1.59,1.58v.58c0,.73-.55,1.23-1.66,1.51h-.36c-1.1-.24-1.65-.8-1.65-1.66v-.36c.26-1.1.79-1.65,1.58-1.65v-1.87h-1.94c-.07,0-.14-.07-.22-.21v-.07c0-.07.07-.14.22-.22Zm.86,4.1v.21c.15.82.55,1.23,1.22,1.23h.36c.53,0,.92-.43,1.16-1.3-.2-.96-.66-1.44-1.37-1.44-.91.16-1.37.59-1.37,1.3Zm1.22-.29h.22c.07,0,.17.1.29.29v.21c0,.07-.1.17-.29.29h-.22c-.07,0-.17-.1-.28-.29v-.21c0-.08.09-.18.28-.29Z"/><path class="cls-1" d="m25.73,2.43h4.46c.1.02.15.06.15.14v.22c0,.09-.05.14-.15.14h-2.02v1.87c1.06.28,1.59.8,1.59,1.58v.58c0,.73-.55,1.23-1.66,1.51h-.36c-1.1-.24-1.65-.8-1.65-1.66v-.36c.26-1.1.79-1.65,1.58-1.65v-1.87h-1.94c-.07,0-.14-.07-.22-.21v-.07c0-.07.07-.14.22-.22Zm.86,4.1v.21c.15.82.55,1.23,1.22,1.23h.36c.53,0,.92-.43,1.16-1.3-.2-.96-.66-1.44-1.37-1.44-.91.16-1.37.59-1.37,1.3Zm1.22-.29h.22c.07,0,.17.1.29.29v.21c0,.07-.1.17-.29.29h-.22c-.07,0-.17-.1-.28-.29v-.21c0-.08.09-.18.28-.29Z"/><path class="cls-1" d="m35.6,2.47c.16.06.24.12.24.18v.12c0,.08-.04.12-.12.12h-.18c-.89,0-1.43.32-1.63.96v.12c.52,0,1,.42,1.44,1.26h.78c.08.01.12.05.12.12v.12c0,.06-.06.12-.18.18h-.78c-.24.96-.7,1.44-1.38,1.44,0,.55.58.87,1.74.96.12,0,.18.04.18.12v.12c0,.06-.06.12-.18.18-1.2,0-1.94-.46-2.22-1.38-.84-.33-1.26-.81-1.26-1.44h-.72c-.06,0-.12-.06-.18-.18v-.12c.01-.08.05-.12.12-.12h.84c0-.51.42-.93,1.26-1.26,0-.88.66-1.38,1.98-1.5h.12Zm-3.01,3.18c0,.51.36.85,1.08,1.02h.12c.72-.11,1.08-.47,1.08-1.08v-.18c0-.53-.38-.87-1.14-1.02-.66,0-1.04.42-1.14,1.26Zm1.02-.42h.24c.16.08.24.2.24.36-.05.2-.19.3-.42.3-.06,0-.14-.08-.24-.24v-.24c0-.05.06-.11.18-.18Z"/><path class="cls-1" d="m43.87,2.43c.09,0,.14.07.14.21-.32,3.52-.53,5.29-.62,5.29l-.14.06c-.21-.13-.69-.51-1.44-1.17-.21.14-.56.25-1.03.35-1.19-.23-1.78-.81-1.78-1.72v-.2c0-.2.07-.45.2-.76l-.89-.68-.55,4.6-.14.07h-.07c-.07,0-.14-.07-.21-.21.32-3.48.53-5.22.62-5.22h.21c.27.19.71.56,1.3,1.1.3-.37.74-.55,1.3-.55h.14c.9,0,1.44.6,1.64,1.79,0,.33-.14.7-.41,1.1l.9.75c.32-3.01.52-4.61.62-4.8h.21Zm-4.4,2.88v.21c0,.59.43.98,1.3,1.17.73,0,1.17-.46,1.31-1.37,0-.66-.44-1.1-1.31-1.3-.87.18-1.3.61-1.3,1.3Zm1.37-.34c.18.07.28.14.28.21v.34c0,.07-.07.14-.21.21h-.28c-.18-.09-.27-.23-.27-.41.06-.23.22-.34.48-.34Z"/><path class="cls-1" d="m68.02.01c.22.09.34.17.34.25v.17c0,.11-.05.17-.17.17h-.25c-1.25,0-2.01.45-2.29,1.35v.17c.73,0,1.41.59,2.03,1.78h1.1c.11.02.17.07.17.17v.17c0,.08-.08.17-.25.25h-1.1c-.33,1.36-.98,2.03-1.94,2.03,0,.78.82,1.23,2.45,1.35.17,0,.25.06.25.17v.17c0,.08-.08.17-.25.25-1.69,0-2.74-.65-3.13-1.94-1.19-.46-1.78-1.14-1.78-2.03h-1.01c-.08,0-.17-.08-.25-.25v-.17c.02-.11.07-.17.17-.17h1.18c0-.71.59-1.31,1.77-1.78,0-1.24.93-1.95,2.79-2.12h.17Zm-4.23,4.49c0,.72.51,1.2,1.52,1.44h.17c1.02-.16,1.53-.67,1.53-1.52v-.25c0-.74-.54-1.22-1.61-1.44-.94,0-1.48.59-1.61,1.77Zm1.44-.59h.34c.23.11.34.28.34.51-.08.28-.28.42-.6.42-.09,0-.2-.11-.34-.34v-.34c0-.08.08-.17.25-.25Z"/><path class="cls-1" d="m74.68,2.43l.12.18v.12c0,.05-.22.27-.65.65,0,.03.02.15.06.35,0,.42-.38,1.06-1.13,1.9.44.38.65.84.65,1.36,0,.84-.53,1.33-1.6,1.48-.66,0-1.14-.39-1.43-1.18,0-.03-.02-.15-.06-.35,0-.46.24-.91.71-1.36-.67-.76-1.04-1.41-1.13-1.96,0-.52.65-.86,1.96-1.01.4,0,.98.16,1.72.48.35-.44.61-.65.77-.65Zm-4.03,1.18c.04.36.42.97,1.13,1.83l.3-.06h.18l.41.06c.75-.8,1.13-1.39,1.13-1.77,0-.28-.53-.49-1.6-.65-1.03.14-1.54.34-1.54.6Zm.42,3.32c0,.67.41,1.04,1.24,1.13.67-.2,1.01-.54,1.01-1.01v-.18c-.11-.71-.47-1.07-1.07-1.07h-.12c-.58,0-.94.38-1.07,1.13Zm1.18-.36c.2.07.29.19.29.36-.08.18-.16.28-.24.29h-.24c-.06,0-.12-.06-.18-.18v-.24c.08-.16.2-.24.36-.24Z"/><path class="cls-1" d="m77.92,2.46h.12c.09,0,.18.31.29.92.65.26.97.66.97,1.2v.35c0,.32-.17.66-.51,1.03.27,1.38.4,2.17.4,2.36l-.18.11c-.23-.11-.34-.48-.34-1.09h-.06c-.29.11-.56.17-.8.17h-.06c-.25,0-.52-.1-.8-.29-.19.81-.32,1.21-.4,1.21h-.12c-.05,0-.11-.06-.17-.17l.63-2.36c-.35-.29-.52-.61-.52-.97v-.29c0-.61.4-1.06,1.21-1.38.14-.53.26-.8.34-.8Zm-1.14,2.12v.35c.17.61.48.92.91.92h.29c.48,0,.8-.36.98-1.09,0-.62-.4-.99-1.21-1.09-.65.19-.97.49-.97.91Zm.46,1.61c-.12.33-.18.54-.18.63.28.19.49.29.63.29h.29c.09,0,.28-.08.58-.23-.04-.28-.1-.52-.18-.75-.14.08-.29.12-.46.12h-.17c-.23-.04-.4-.06-.51-.06Zm.51-1.72h.17c.06,0,.14.08.23.23v.17c-.07.15-.19.23-.34.23-.19-.05-.29-.18-.29-.4,0-.06.08-.14.23-.23Z"/><path class="cls-1" d="m87.28,2.43c.09,0,.14.07.14.21-.32,3.52-.53,5.29-.62,5.29l-.14.06c-.21-.13-.69-.51-1.44-1.17-.21.14-.56.25-1.03.35-1.19-.23-1.78-.81-1.78-1.72v-.2c0-.2.07-.45.2-.76l-.89-.68-.55,4.6-.14.07h-.07c-.07,0-.14-.07-.21-.21.32-3.48.53-5.22.62-5.22h.21c.27.19.71.56,1.3,1.1.3-.37.74-.55,1.3-.55h.14c.9,0,1.44.6,1.64,1.79,0,.33-.14.7-.41,1.1l.9.75c.32-3.01.52-4.61.62-4.8h.21Zm-4.4,2.88v.21c0,.59.43.98,1.3,1.17.73,0,1.17-.46,1.31-1.37,0-.66-.44-1.1-1.31-1.3-.87.18-1.3.61-1.3,1.3Zm1.37-.34c.18.07.28.14.28.21v.34c0,.07-.07.14-.21.21h-.28c-.18-.09-.27-.23-.27-.41.06-.23.22-.34.48-.34Z"/><path class="cls-1" d="m94.53,0c1.29,0,2.46.42,3.49,1.27,0-.09.28-.37.85-.85h.21c.1,0,.21.11.32.32v.11l-.95,1.06c.78.99,1.17,2.08,1.17,3.28,0,1.27-.42,2.29-1.27,3.07h-.21c-.1,0-.2-.11-.31-.32.7-.92,1.05-1.87,1.05-2.86-.48-2.9-1.82-4.34-4.03-4.34v1.8l1.59.95c.5.61.74,1.31.74,2.12,0,1.31-.88,2.16-2.65,2.54-1.91-.2-2.86-1.15-2.86-2.86.33-1.69,1.14-2.54,2.44-2.54V.74c-1.83,0-3.21,1.34-4.13,4.03v.53c0,.7.28,1.69.85,2.96l-.32.21h-.21c-.36,0-.71-1.06-1.06-3.18,0-.99.39-2.05,1.17-3.18v-.11c-.57-.54-.85-.97-.85-1.27.23-.14.4-.21.53-.21,0,.09.28.37.85.85h.1c1.01-.92,2.17-1.38,3.49-1.38Zm-2.12,5.4c.2,1.34.88,2.01,2.02,2.01,1.34-.21,2.01-.88,2.01-2.01-.21-1.34-.88-2.02-2.01-2.02-1.34.21-2.02.88-2.02,2.02Zm2.02-.64c.21,0,.42.21.63.64,0,.21-.21.42-.63.64-.21,0-.42-.21-.64-.64,0-.21.21-.42.64-.64Z"/><path class="cls-1" d="m102.9,2.46h.12c.09,0,.18.31.29.92.65.26.97.66.97,1.2v.35c0,.32-.17.66-.51,1.03.27,1.38.4,2.17.4,2.36l-.18.11c-.23-.11-.34-.48-.34-1.09h-.06c-.29.11-.56.17-.8.17h-.06c-.25,0-.52-.1-.8-.29-.19.81-.32,1.21-.4,1.21h-.12c-.05,0-.11-.06-.17-.17l.63-2.36c-.35-.29-.52-.61-.52-.97v-.29c0-.61.4-1.06,1.21-1.38.14-.53.26-.8.34-.8Zm-1.14,2.12v.35c.17.61.48.92.91.92h.29c.48,0,.8-.36.98-1.09,0-.62-.4-.99-1.21-1.09-.65.19-.97.49-.97.91Zm.46,1.61c-.12.33-.18.54-.18.63.28.19.49.29.63.29h.29c.09,0,.28-.08.58-.23-.04-.28-.1-.52-.18-.75-.14.08-.29.12-.46.12h-.17c-.23-.04-.4-.06-.51-.06Zm.51-1.72h.17c.06,0,.14.08.23.23v.17c-.07.15-.19.23-.34.23-.19-.05-.29-.18-.29-.4,0-.06.08-.14.23-.23Z"/><path class="cls-1" d="m105.88,2.43h4.46c.1.02.15.06.15.14v.22c0,.09-.05.14-.15.14h-2.02v1.87c1.06.28,1.59.8,1.59,1.58v.58c0,.73-.55,1.23-1.66,1.51h-.36c-1.1-.24-1.65-.8-1.65-1.66v-.36c.26-1.1.79-1.65,1.58-1.65v-1.87h-1.94c-.07,0-.14-.07-.22-.21v-.07c0-.07.07-.14.22-.22Zm.86,4.1v.21c.15.82.55,1.23,1.22,1.23h.36c.53,0,.92-.43,1.16-1.3-.2-.96-.66-1.44-1.37-1.44-.91.16-1.37.59-1.37,1.3Zm1.22-.29h.22c.07,0,.17.1.29.29v.21c0,.07-.1.17-.29.29h-.22c-.07,0-.17-.1-.28-.29v-.21c0-.08.09-.18.28-.29Z"/><path class="cls-1" d="m111.75,2.43h4.46c.1.02.15.06.15.14v.22c0,.09-.05.14-.15.14h-2.02v1.87c1.06.28,1.59.8,1.59,1.58v.58c0,.73-.55,1.23-1.66,1.51h-.36c-1.1-.24-1.65-.8-1.65-1.66v-.36c.26-1.1.79-1.65,1.58-1.65v-1.87h-1.94c-.07,0-.14-.07-.22-.21v-.07c0-.07.07-.14.22-.22Zm.86,4.1v.21c.15.82.55,1.23,1.22,1.23h.36c.53,0,.92-.43,1.16-1.3-.2-.96-.66-1.44-1.37-1.44-.91.16-1.37.59-1.37,1.3Zm1.22-.29h.22c.07,0,.17.1.29.29v.21c0,.07-.1.17-.29.29h-.22c-.07,0-.17-.1-.28-.29v-.21c0-.08.09-.18.28-.29Z"/><path class="cls-1" d="m121.57.01h.17c.12,0,.26.43.41,1.3.91.37,1.37.94,1.37,1.7v.49c0,.45-.24.93-.72,1.46.38,1.95.57,3.06.57,3.32l-.24.16c-.33-.16-.49-.67-.49-1.54h-.08c-.42.16-.79.24-1.13.24h-.08c-.35,0-.73-.14-1.13-.41-.27,1.14-.46,1.7-.57,1.7h-.17c-.08,0-.16-.08-.24-.24l.89-3.32c-.49-.41-.73-.87-.73-1.37v-.41c0-.86.57-1.5,1.7-1.94.2-.75.36-1.13.48-1.13Zm-1.62,2.99v.49c.24.86.68,1.3,1.3,1.3h.4c.67,0,1.13-.51,1.38-1.54,0-.88-.57-1.39-1.7-1.54-.92.27-1.37.7-1.37,1.29Zm.65,2.27c-.17.46-.25.75-.25.89.39.27.69.41.9.41h.4c.12,0,.4-.11.81-.32-.06-.39-.14-.74-.25-1.05-.2.11-.41.17-.65.17h-.24c-.32-.05-.56-.08-.73-.08Zm.73-2.43h.24c.09,0,.19.11.32.32v.24c-.11.22-.27.32-.48.32-.27-.07-.41-.26-.41-.57,0-.09.11-.19.32-.32Z"/><path class="cls-1" d="m127.11,2.43h.1c.11.04.16.14.16.31v.32c-.09.13-.65.44-1.68.94l-.21.21.68.42c.29-.31.59-.47.9-.47h.26c.69,0,1.11.46,1.26,1.37l-.05.47c.53.23.79.46.79.68-.26.29-.9.74-1.94,1.37,0,.28-.04.42-.11.42h-.1c-.11-.04-.16-.14-.16-.31v-.11c0-.25.47-.6,1.41-1.05l.42-.37c-.2-.21-.39-.31-.58-.31,0,.22-.35.42-1.05.58-.78,0-1.23-.47-1.36-1.42,0-.09.04-.27.11-.52-.48-.27-.78-.5-.9-.68,0-.33.65-.76,1.94-1.31v-.42c.01-.07.05-.11.11-.11Zm-.9,3.05v.05c.12.66.45,1,1,1,.67-.13,1-.46,1-1-.11-.66-.39-1-.84-1h-.31c-.44,0-.72.31-.84.94Zm1.05-.27c.14.05.21.11.21.16v.27c0,.05-.05.1-.16.15h-.21c-.07,0-.14-.1-.21-.31.05-.18.17-.27.37-.27Z"/><path class="cls-1" d="m134.56,2.42c1.64.55,2.46,1.6,2.46,3.15,0,1.14-.74,2.08-2.21,2.84h-.12c-.09,0-.13-.04-.13-.12v-.13c.71-.5,1.13-.81,1.27-.94.41-.43.66-.94.75-1.51h-1.01c0,.7-.53,1.14-1.58,1.33-.74,0-1.26-.4-1.58-1.2v-.12h-1.07c0,.97.78,1.79,2.33,2.46v.19c0,.08-.04.12-.12.12-.61,0-1.35-.48-2.21-1.45-.29-.53-.44-1.03-.44-1.51,0-1.39.76-2.4,2.27-3.04l.12.19v.12c-1.26.75-1.89,1.51-1.89,2.27v.19h.94c0-.8.55-1.31,1.64-1.51h.12c1.01.25,1.51.75,1.51,1.51h.83l.12-.06c0-.57-.36-1.18-1.07-1.83l-1.14-.63v-.12c0-.06.06-.13.19-.19Zm-1.77,2.96c.12.8.53,1.2,1.2,1.2h.12c.55,0,.91-.38,1.07-1.14v-.13c0-.62-.4-.99-1.2-1.13-.8.13-1.2.52-1.2,1.2Zm1.2-.38c.25.09.38.26.38.51-.21.17-.34.25-.38.25-.19-.08-.3-.16-.32-.25v-.25c.02-.09.12-.17.32-.25Z"/><path class="cls-1" d="m140.43,2.46h.12c.09,0,.18.31.29.92.65.26.97.66.97,1.2v.35c0,.32-.17.66-.51,1.03.27,1.38.4,2.17.4,2.36l-.18.11c-.23-.11-.34-.48-.34-1.09h-.06c-.29.11-.56.17-.8.17h-.06c-.25,0-.52-.1-.8-.29-.19.81-.32,1.21-.4,1.21h-.12c-.06,0-.11-.06-.17-.17l.63-2.36c-.35-.29-.52-.61-.52-.97v-.29c0-.61.4-1.06,1.21-1.38.14-.53.25-.8.34-.8Zm-1.14,2.12v.35c.17.61.48.92.91.92h.29c.48,0,.8-.36.98-1.09,0-.62-.4-.99-1.21-1.09-.65.19-.97.49-.97.91Zm.46,1.61c-.12.33-.18.54-.18.63.27.19.48.29.63.29h.29c.09,0,.28-.08.58-.23-.04-.28-.1-.52-.18-.75-.14.08-.29.12-.46.12h-.17c-.23-.04-.4-.06-.51-.06Zm.51-1.72h.17c.06,0,.14.08.23.23v.17c-.08.15-.19.23-.34.23-.19-.05-.29-.18-.29-.4,0-.06.08-.14.23-.23Z"/><path class="cls-1" d="m143.43,2.48l1.03.84c.28-.16.52-.24.72-.24h.24c.53.12.81.18.85.18,0-.05.24-.3.72-.72h.06c.06,0,.12.06.18.18v.06l-.72.78c.24.34.36.71.36,1.09v.12c-.19.93-.65,1.39-1.38,1.39v1.33c0,.37.28.59.84.66v.18c0,.06-.06.12-.18.18h-.06c-.36,0-.64-.16-.84-.48-.42.28-.7.42-.85.42h-.12c-.08,0-.12-.04-.12-.12v-.12c.6-.38.91-.6.91-.67v-1.39c-.69,0-1.14-.52-1.33-1.57.05-.36.17-.68.37-.97-.05,0-.35-.3-.91-.91,0-.06.08-.14.24-.24Zm.72,2.17c.15.77.53,1.15,1.15,1.15.77-.13,1.15-.5,1.15-1.09v-.24c-.19-.64-.51-.97-.97-.97h-.24c-.59,0-.96.38-1.09,1.15Zm1.21-.37c.2.06.3.2.3.42,0,.06-.08.14-.24.24h-.24c-.12-.04-.18-.16-.18-.36v-.06c.08-.16.2-.24.36-.24Z"/><path class="cls-1" d="m152.6.01c1.16,0,1.84.38,2.04,1.13-.11.16-.34.59-.68,1.28.3.26.45.69.45,1.28,0,1.03-.75,1.71-2.26,2.04-.35.32-.53.5-.53.53,1.9,1.08,2.91,1.72,3.02,1.89v.15c0,.1-.05.15-.15.15h-.22c-2.17-1.28-3.3-1.99-3.4-2.12v-.15s.28-.29.83-.75v-.08c-.81-.3-1.21-.88-1.21-1.74,0-.57.17-1,.52-1.28-.45-.86-.68-1.36-.68-1.51v-.08c.35-.5,1.11-.75,2.27-.75Zm-1.66.83c0,.1.15.48.45,1.13.34-.2.64-.3.9-.3h.31c.18,0,.51.1.98.3.3-.5.45-.83.45-.98-.31-.3-.81-.45-1.51-.45-.51,0-1.04.1-1.59.3Zm.07,2.79c.15.96.63,1.44,1.44,1.44.96-.17,1.44-.64,1.44-1.44v-.07c0-.74-.45-1.2-1.36-1.36h-.15c-.74,0-1.19.48-1.36,1.43Zm1.36-.45c.35,0,.53.15.53.45-.1.23-.2.36-.3.38h-.31c-.1-.02-.2-.15-.3-.38.07-.2.2-.36.38-.45Z"/><path class="cls-1" d="m157.33,2.43h.11c.05,0,.11.05.17.17v1.49c.63,0,1.03.46,1.21,1.37-.17.92-.58,1.37-1.21,1.37,0,.04-.02.06-.06.06l.06.11v1.16c0,.19-.06.3-.17.33h-.11c-.08,0-.11-.04-.11-.11v-1.48c-.61,0-1.03-.44-1.26-1.32v-.05c.13-.95.52-1.43,1.16-1.43,0-.04.04-.06.11-.06v-1.48c.01-.07.05-.11.11-.11Zm-.99,2.96v.11c.12.66.45.99.99.99h.05c.7-.11,1.04-.46,1.04-1.05-.12-.7-.47-1.04-1.04-1.04-.7.12-1.04.45-1.04.99Zm1.04-.27c.17.07.26.14.28.22v.22c-.02.07-.11.15-.28.22-.22,0-.33-.13-.33-.38.07-.13.18-.22.33-.27Z"/><path class="cls-1" d="m160.41,2.43l.77.71c.47-.17.84-.26,1.1-.26h.06c.9,0,1.41.56,1.54,1.67v.13c0,.71-.47,1.22-1.41,1.54-.04,0-.06.02-.06.06v1.61h.06c.11-.43.49-.64,1.16-.64h.25c.56.15.84.4.84.77v.19c-.07.17-.22.26-.45.26h-1.61c-.47,0-.71-.32-.71-.97v-1.35c-.72,0-1.19-.53-1.41-1.6,0-.27.13-.63.39-1.1-.11,0-.39-.26-.84-.77v-.06c0-.1.11-.16.32-.19Zm.58,2.12c.19.81.6,1.22,1.22,1.22.81-.14,1.22-.53,1.22-1.16v-.26c-.2-.68-.54-1.03-1.03-1.03h-.32c-.55,0-.91.41-1.09,1.22Zm1.28-.39c.21.06.32.21.32.45,0,.07-.08.15-.25.25h-.26c-.06,0-.13-.06-.19-.19v-.26c.09-.17.22-.26.39-.26Zm.71,3.8v.06h.06c.14,0,.25-.02.32-.06.23.04.42.06.58.06h.13c.09,0,.13-.04.13-.13-.17-.13-.36-.19-.58-.19-.43.05-.64.14-.64.26Z"/><path class="cls-1" d="m168.75.01c1.16,0,1.84.38,2.04,1.13-.11.16-.34.59-.68,1.28.3.26.45.69.45,1.28,0,1.03-.75,1.71-2.26,2.04-.35.32-.53.5-.53.53,1.9,1.08,2.91,1.72,3.02,1.89v.15c0,.1-.05.15-.15.15h-.22c-2.17-1.28-3.3-1.99-3.4-2.12v-.15s.28-.29.83-.75v-.08c-.81-.3-1.21-.88-1.21-1.74,0-.57.17-1,.52-1.28-.45-.86-.68-1.36-.68-1.51v-.08c.35-.5,1.11-.75,2.27-.75Zm-1.66.83c0,.1.15.48.45,1.13.34-.2.64-.3.9-.3h.31c.18,0,.51.1.98.3.3-.5.45-.83.45-.98-.31-.3-.81-.45-1.51-.45-.51,0-1.04.1-1.59.3Zm.07,2.79c.15.96.63,1.44,1.44,1.44.96-.17,1.44-.64,1.44-1.44v-.07c0-.74-.45-1.2-1.36-1.36h-.15c-.74,0-1.19.48-1.36,1.43Zm1.36-.45c.35,0,.53.15.53.45-.1.23-.2.36-.3.38h-.31c-.1-.02-.2-.15-.3-.38.07-.2.2-.36.38-.45Z"/><path class="cls-1" d="m173.84,2.43c1.18.2,1.77.77,1.77,1.71-.04.37-.17.76-.39,1.18.66.55.98.94.98,1.18-.15.09-.26.13-.33.13,0-.05-.35-.4-1.05-1.05-.3.17-.57.26-.79.26h-.13c-.47,0-.88-.15-1.25-.46v2.96c0,.09-.04.13-.13.13h-.14c-.13-.04-.19-.18-.19-.39v-4.07c0-.8.55-1.32,1.64-1.57Zm-1.18,1.64v.26c.2.7.55,1.05,1.05,1.05h.27c.64,0,1.04-.41,1.18-1.24,0-.67-.44-1.08-1.31-1.25-.79.18-1.18.58-1.18,1.18Zm1.11-.27h.27c.13.04.19.18.19.39v.06c0,.07-.09.16-.26.27-.31,0-.46-.15-.46-.46,0-.07.09-.16.26-.27Z"/><path class="cls-1" d="m179.31,2.46h.12c.09,0,.18.31.29.92.65.26.97.66.97,1.2v.35c0,.32-.17.66-.51,1.03.27,1.38.4,2.17.4,2.36l-.18.11c-.23-.11-.34-.48-.34-1.09h-.06c-.29.11-.56.17-.8.17h-.06c-.25,0-.52-.1-.8-.29-.19.81-.32,1.21-.4,1.21h-.12c-.06,0-.11-.06-.17-.17l.63-2.36c-.35-.29-.52-.61-.52-.97v-.29c0-.61.4-1.06,1.21-1.38.14-.53.25-.8.34-.8Zm-1.14,2.12v.35c.17.61.48.92.91.92h.29c.48,0,.8-.36.98-1.09,0-.62-.4-.99-1.21-1.09-.65.19-.97.49-.97.91Zm.46,1.61c-.12.33-.18.54-.18.63.27.19.48.29.63.29h.29c.09,0,.28-.08.58-.23-.04-.28-.1-.52-.18-.75-.14.08-.29.12-.46.12h-.17c-.23-.04-.4-.06-.51-.06Zm.51-1.72h.17c.06,0,.14.08.23.23v.17c-.08.15-.19.23-.34.23-.19-.05-.29-.18-.29-.4,0-.06.08-.14.23-.23Z"/><path class="cls-1" d="m184.79,2.48c1.28,0,2.1.77,2.48,2.31.04.2.05.37.05.5l-.17.11h-.94l-.44.77c-.34.29-.65.44-.94.44h-.22c-.74,0-1.18-.5-1.33-1.49,0-.73.48-1.19,1.43-1.37.67,0,1.15.38,1.43,1.16v.11h.77c-.21-.9-.54-1.51-.99-1.82-.38-.22-.79-.33-1.21-.33-1.14,0-1.88.55-2.2,1.66-.03.37-.07.55-.11.55.17,1.65.93,2.48,2.31,2.48.15.02.22.07.22.17v.66c0,.07-.04.11-.11.11h-.17c-.08,0-.11-.04-.11-.11v-.44h-.05c-1.37,0-2.17-.9-2.42-2.7v-.28c0-1.1.57-1.87,1.71-2.31.13-.07.46-.13.99-.17Zm-1.1,2.7c.12.7.45,1.04.99,1.04h.11c.54,0,.87-.33.99-.99v-.05c-.11-.7-.46-1.05-1.05-1.05-.7.13-1.04.48-1.04,1.05Zm.94-.28h.22c.07.02.15.11.22.28,0,.22-.13.33-.38.33-.06,0-.13-.07-.22-.22v-.22c0-.05.05-.11.17-.17Z"/><path class="cls-1" d="m189.94,2.43h.11c.05,0,.11.05.17.17v1.49c.63,0,1.03.46,1.21,1.37-.17.92-.58,1.37-1.21,1.37,0,.04-.02.06-.06.06l.06.11v1.16c0,.19-.06.3-.17.33h-.11c-.08,0-.11-.04-.11-.11v-1.48c-.61,0-1.03-.44-1.26-1.32v-.05c.13-.95.52-1.43,1.16-1.43,0-.04.04-.06.11-.06v-1.48c.01-.07.05-.11.11-.11Zm-.99,2.96v.11c.12.66.45.99.99.99h.05c.7-.11,1.04-.46,1.04-1.05-.12-.7-.47-1.04-1.04-1.04-.7.12-1.04.45-1.04.99Zm1.04-.27c.17.07.26.14.28.22v.22c-.02.07-.11.15-.28.22-.22,0-.33-.13-.33-.38.07-.13.18-.22.33-.27Z"/><path class="cls-1" d="m196.87,2.47c.16.06.24.12.24.18v.12c0,.08-.04.12-.12.12h-.18c-.89,0-1.43.32-1.63.96v.12c.52,0,1,.42,1.44,1.26h.78c.08.01.12.05.12.12v.12c0,.06-.06.12-.18.18h-.78c-.24.96-.7,1.44-1.38,1.44,0,.55.58.87,1.74.96.12,0,.18.04.18.12v.12c0,.06-.06.12-.18.18-1.2,0-1.94-.46-2.22-1.38-.84-.33-1.26-.81-1.26-1.44h-.72c-.06,0-.12-.06-.18-.18v-.12c.01-.08.05-.12.12-.12h.84c0-.51.42-.93,1.26-1.26,0-.88.66-1.38,1.98-1.5h.12Zm-3.01,3.18c0,.51.36.85,1.08,1.02h.12c.72-.11,1.08-.47,1.08-1.08v-.18c0-.53-.38-.87-1.14-1.02-.66,0-1.05.42-1.14,1.26Zm1.02-.42h.24c.16.08.24.2.24.36-.06.2-.19.3-.42.3-.06,0-.14-.08-.24-.24v-.24c0-.05.06-.11.18-.18Z"/><path class="cls-1" d="m51.28.05c1.25.26,1.88.84,1.88,1.73h.39c.31.03.47.11.47.23v.16c0,.11-.29.18-.87.24,0,.77-.55,1.35-1.64,1.73-.05,0-.08.03-.08.08v.24c1.01,0,1.61.71,1.8,2.12-.32,1.25-.95,1.88-1.89,1.88h-.31c-.91,0-1.54-.58-1.88-1.73h-.55c-.07,0-.15-.08-.24-.23v-.16c.02-.11.07-.16.16-.16h.62c0-.77.58-1.37,1.73-1.8v-.15l-1.02-.55c-.47-.45-.71-1-.71-1.65v-.08c0-1.06.71-1.68,2.12-1.88Zm-1.57,1.96v.16c0,.77.5,1.24,1.49,1.41.88,0,1.38-.55,1.49-1.64,0-.68-.5-1.13-1.49-1.33h-.08c-.94.17-1.41.64-1.41,1.41Zm0,4.24v.24c.2.94.61,1.41,1.26,1.41h.31c.77,0,1.24-.5,1.41-1.49-.19-.99-.69-1.49-1.49-1.49-.99.2-1.49.64-1.49,1.33Zm1.49-4.63c.24.1.37.21.39.31v.31c0,.07-.08.15-.24.24h-.31c-.08,0-.19-.1-.31-.31,0-.37.16-.55.47-.55Z"/><path class="cls-1" d="m55.65,2.48l1.03.84c.28-.16.52-.24.72-.24h.24c.53.12.81.18.85.18,0-.05.24-.3.72-.72h.06c.06,0,.12.06.18.18v.06l-.72.78c.24.34.36.71.36,1.09v.12c-.19.93-.65,1.39-1.38,1.39v1.33c0,.37.28.59.84.66v.18c0,.06-.06.12-.18.18h-.06c-.36,0-.64-.16-.84-.48-.42.28-.7.42-.85.42h-.12c-.08,0-.12-.04-.12-.12v-.12c.61-.38.91-.6.91-.67v-1.39c-.69,0-1.14-.52-1.33-1.57.05-.36.17-.68.37-.97-.05,0-.35-.3-.91-.91,0-.06.08-.14.24-.24Zm.72,2.17c.15.77.53,1.15,1.15,1.15.77-.13,1.15-.5,1.15-1.09v-.24c-.18-.64-.51-.97-.97-.97h-.24c-.59,0-.96.38-1.09,1.15Zm1.21-.37c.2.06.3.2.3.42,0,.06-.08.14-.24.24h-.24c-.12-.04-.18-.16-.18-.36v-.06c.08-.16.2-.24.36-.24Z"/></svg>